<svg width="30" height="30" viewBox="0 0 30 30" fill="none" xmlns="http://www.w3.org/2000/svg">
<g opacity="0.6">
<path d="M26.2501 15.9546C26.0535 18.0114 25.2549 19.9716 23.9479 21.6057C22.6409 23.2398 20.8795 24.4803 18.8698 25.1821C16.86 25.8838 14.6851 26.0177 12.5995 25.5682C10.5139 25.1187 8.60386 24.1042 7.0929 22.6436C5.58194 21.183 4.53255 19.3367 4.06751 17.3206C3.60247 15.3045 3.74102 13.2021 4.46695 11.2594C5.19288 9.31662 6.47616 7.6139 8.16664 6.35045C9.85712 5.087 11.8849 4.31508 14.0126 4.125C12.7669 5.75416 12.1674 7.76142 12.3233 9.78171C12.4791 11.802 13.3799 13.7011 14.8619 15.1336C16.3438 16.5662 18.3084 17.4369 20.3984 17.5876C22.4883 17.7383 24.5648 17.1588 26.2501 15.9546Z" stroke="#B3B3B3" stroke-width="4" stroke-linecap="round" stroke-linejoin="round"/>
</g>
</svg>
